<?xml version="1.0" encoding="UTF-8" standalone="no"?>
<!DOCTYPE svg PUBLIC "-//W3C//DTD SVG 1.1//EN" "http://www.w3.org/Graphics/SVG/1.1/DTD/svg11.dtd">
<svg width="100%" height="100%" viewBox="0 0 445 388" version="1.1" xmlns="http://www.w3.org/2000/svg" xmlns:xlink="http://www.w3.org/1999/xlink" xml:space="preserve" xmlns:serif="http://www.serif.com/" style="fill-rule:evenodd;clip-rule:evenodd;stroke-linejoin:round;stroke-miterlimit:1.41421;">
    <g transform="matrix(1,0,0,1,-472.011,-148.298)">
        <g transform="matrix(64.6042,0,0,64.6042,-27207.9,-19361)">
            <path d="M435.331,301.982C435.331,301.99 435.335,302.05 435.343,302.162L434.383,302.27L432.079,307.982L431.359,307.982L429.271,302.366C429.223,302.294 429.163,302.25 429.091,302.234L428.467,302.174L428.455,301.994L430.987,301.982C430.987,301.99 430.991,302.05 430.999,302.162L430.111,302.222L431.995,307.73L433.963,302.414C433.987,302.374 433.973,302.336 433.921,302.3C433.869,302.264 433.815,302.242 433.759,302.234L433.135,302.174L433.123,301.994L435.331,301.982Z" style="fill-rule:nonzero;"/>
        </g>
    </g>
</svg>
