<?xml version="1.0" encoding="UTF-8" standalone="no"?>
<!DOCTYPE svg PUBLIC "-//W3C//DTD SVG 1.1//EN" "http://www.w3.org/Graphics/SVG/1.1/DTD/svg11.dtd">
<svg width="100%" height="100%" viewBox="0 0 408 370" version="1.1" xmlns="http://www.w3.org/2000/svg" xmlns:xlink="http://www.w3.org/1999/xlink" xml:space="preserve" xmlns:serif="http://www.serif.com/" style="fill-rule:evenodd;clip-rule:evenodd;stroke-linejoin:round;stroke-miterlimit:1.41421;">
    <g transform="matrix(1,0,0,1,-420.844,-169.229)">
        <g transform="matrix(64.6042,0,0,64.6042,-27207.9,-19361)">
            <path d="M433.975,302.438L433.975,302.306L431.647,302.306L431.647,302.426C431.719,302.434 431.803,302.438 431.899,302.438C431.995,302.438 432.087,302.45 432.175,302.474C432.263,302.498 432.337,302.54 432.397,302.6C432.457,302.66 432.487,302.746 432.487,302.858C432.487,302.93 432.437,303.114 432.337,303.41C432.237,303.706 432.115,304.05 431.971,304.442C431.827,304.834 431.675,305.234 431.515,305.642C431.355,306.05 431.215,306.402 431.095,306.698C431.023,306.506 430.935,306.282 430.831,306.026C430.727,305.77 430.621,305.506 430.513,305.234C430.405,304.962 430.299,304.69 430.195,304.418C430.091,304.146 429.997,303.898 429.913,303.674C429.829,303.45 429.761,303.262 429.709,303.11C429.657,302.958 429.631,302.862 429.631,302.822C429.631,302.734 429.665,302.668 429.733,302.624C429.801,302.58 429.883,302.546 429.979,302.522C430.075,302.498 430.177,302.48 430.285,302.468C430.393,302.456 430.483,302.446 430.555,302.438L430.555,302.306L427.663,302.306L427.663,302.438C427.927,302.454 428.109,302.492 428.209,302.552C428.309,302.612 428.383,302.666 428.431,302.714C428.471,302.786 428.515,302.878 428.563,302.99C428.611,303.102 428.659,303.218 428.707,303.338C428.755,303.458 428.801,303.572 428.845,303.68C428.889,303.788 428.923,303.874 428.947,303.938C429.115,304.378 429.267,304.774 429.403,305.126C429.539,305.478 429.667,305.808 429.787,306.116C429.907,306.424 430.023,306.724 430.135,307.016C430.247,307.308 430.367,307.618 430.495,307.946C430.503,307.962 430.515,307.98 430.531,308C430.547,308.02 430.571,308.03 430.603,308.03C430.659,308.03 430.699,308.006 430.723,307.958C430.771,307.854 430.813,307.762 430.849,307.682C430.885,307.602 430.923,307.518 430.963,307.43C431.003,307.342 431.045,307.248 431.089,307.148C431.133,307.048 431.187,306.926 431.251,306.782C431.363,306.502 431.485,306.194 431.617,305.858C431.749,305.522 431.883,305.186 432.019,304.85C432.155,304.514 432.285,304.194 432.409,303.89C432.533,303.586 432.643,303.322 432.739,303.098C432.803,302.954 432.887,302.838 432.991,302.75C433.095,302.662 433.207,302.596 433.327,302.552C433.447,302.508 433.565,302.478 433.681,302.462C433.797,302.446 433.895,302.438 433.975,302.438Z" />
        </g>
    </g>
</svg>
